<?xml version="1.0" standalone="no"?>
<!DOCTYPE svg PUBLIC "-//W3C//DTD SVG 20010904//EN"
 "http://www.w3.org/TR/2001/REC-SVG-20010904/DTD/svg10.dtd">
<svg version="1.0" xmlns="http://www.w3.org/2000/svg"
 width="512.000000pt" height="512.000000pt" viewBox="0 0 512.000000 512.000000"
 preserveAspectRatio="xMidYMid meet">
<metadata>
Created by potrace 1.11, written by Peter Selinger 2001-2013
</metadata>
<g transform="translate(0.000000,512.000000) scale(0.100000,-0.100000)"
fill="#000000" stroke="none">
<path d="M3745 4262 c5 -19 3 -22 -24 -22 -39 0 -58 -27 -120 -172 -125 -293
-572 -1235 -630 -1328 -16 -25 -57 -99 -91 -165 -123 -234 -250 -434 -328
-517 -81 -86 -132 -62 -208 97 -55 116 -93 231 -143 430 -46 183 -137 643
-176 885 -35 222 -34 219 -46 197 -6 -9 -18 -17 -27 -17 -18 -1 -59 -75 -54
-97 4 -18 -17 -16 -24 1 -3 8 -1 23 5 34 14 26 3 34 -23 17 -20 -13 -23 -12
-41 15 -11 17 -23 30 -27 30 -4 0 -4 8 -1 17 5 13 3 15 -13 8 -10 -4 -36 -11
-57 -15 -21 -4 -45 -18 -57 -33 -11 -14 -40 -35 -65 -47 -25 -12 -45 -26 -45
-31 0 -5 -7 -9 -15 -9 -8 0 -15 -4 -15 -9 0 -6 9 -8 20 -6 21 4 26 -10 11 -34
-5 -7 -14 -10 -20 -7 -6 4 -12 0 -12 -11 -3 -25 -6 -46 -9 -58 -1 -5 -3 -14
-4 -20 -4 -22 -35 -83 -45 -90 -9 -5 -9 -10 0 -21 9 -11 8 -15 -5 -20 -9 -3
-16 -12 -16 -20 0 -8 -7 -14 -15 -14 -18 0 -20 -27 -2 -33 9 -3 9 -7 -1 -19
-9 -12 -10 -18 -2 -23 6 -4 9 -12 7 -18 -2 -7 0 -20 5 -31 7 -12 6 -22 -3 -30
-9 -8 -11 -7 -6 7 4 9 2 17 -3 17 -6 0 -10 -4 -10 -10 0 -18 -33 -11 -57 12
-16 15 -23 17 -23 7 0 -12 -2 -12 -10 1 -5 8 -12 11 -16 8 -7 -8 -68 -350
-133 -748 -40 -240 -123 -730 -142 -830 -52 -278 -89 -502 -89 -535 0 -90 75
-188 169 -220 117 -40 248 11 302 117 14 28 60 274 160 861 77 452 144 831
148 842 7 16 10 17 14 5 3 -8 29 -87 57 -175 127 -388 245 -617 399 -778 36
-38 84 -80 107 -93 110 -65 231 -70 330 -14 200 115 537 568 813 1094 29 55
59 109 67 120 13 19 14 18 14 -19 0 -22 -5 -80 -10 -130 -29 -279 -120 -1445
-118 -1507 3 -64 5 -73 21 -70 10 2 17 -2 16 -10 -4 -33 2 -55 16 -55 8 0 15
9 15 21 0 20 1 20 16 -2 13 -19 18 -21 32 -10 9 7 13 8 10 3 -4 -6 9 -15 28
-21 23 -7 34 -8 34 -1 0 6 3 7 6 4 4 -4 1 -13 -5 -21 -9 -11 -9 -16 0 -22 8
-4 9 -3 5 4 -5 8 0 12 13 12 10 0 21 6 23 12 3 9 10 8 23 -5 17 -17 17 -19 0
-31 -11 -8 -14 -15 -8 -19 6 -4 13 0 17 8 3 8 12 15 20 15 8 0 16 10 18 22 3
20 4 21 20 5 21 -21 32 -22 24 -2 -3 10 1 15 12 15 9 0 27 3 40 6 17 5 21 3
16 -9 -4 -12 -1 -14 15 -10 19 5 19 6 4 30 -11 17 -13 27 -5 35 6 6 8 17 5 25
-4 9 0 14 8 13 51 -8 51 10 -1 39 -50 28 -53 34 -28 50 11 7 17 8 13 2 -3 -6
-2 -11 3 -11 5 0 12 8 14 18 5 20 -16 65 -26 55 -4 -4 -4 1 0 12 14 37 44 58
44 31 0 -13 29 -31 37 -22 7 7 66 767 60 773 -11 11 -62 -42 -59 -60 3 -17
-22 -46 -41 -47 -5 0 -6 14 -2 31 4 18 3 29 -2 26 -18 -11 -33 10 -38 52 -3
24 -12 49 -20 57 -12 13 -12 19 2 49 10 20 24 35 34 35 10 0 21 5 24 10 4 6
10 8 15 5 7 -5 23 31 21 48 -1 4 10 12 24 17 14 5 25 14 25 20 0 6 5 8 11 4 8
-4 9 4 4 27 -9 43 -14 51 -26 44 -5 -4 -9 -1 -9 4 0 6 5 11 10 11 16 0 12 17
-6 24 -9 4 -22 2 -29 -4 -9 -8 -15 -8 -20 0 -3 5 1 13 9 16 23 9 19 26 -4 19
-16 -5 -20 -2 -20 18 0 14 4 27 8 29 4 2 0 11 -11 21 -12 12 -18 13 -16 5 3
-25 -1 -38 -12 -38 -6 0 -9 7 -5 15 3 8 1 15 -3 15 -5 0 -12 -6 -14 -12 -3 -8
-6 -6 -6 5 -1 10 -9 17 -20 17 -11 0 -22 4 -25 9 -12 19 -61 9 -83 -17 -12
-14 -25 -23 -29 -19 -9 8 12 58 23 56 18 -3 36 1 30 7 -3 4 16 24 43 46 40 31
50 46 50 69 0 24 7 32 38 46 20 10 50 26 67 37 38 26 60 29 79 11 13 -13 17
-10 35 28 15 32 24 86 36 222 8 99 19 223 24 275 5 52 12 131 16 175 12 167
15 202 20 260 9 108 24 319 25 347 0 20 -4 26 -15 22 -11 -5 -13 -2 -9 10 3 9
10 16 15 16 5 0 9 11 9 24 0 21 -5 25 -29 24 -26 -1 -28 -3 -21 -28 7 -24 5
-27 -15 -27 -14 0 -22 5 -21 16 1 11 -5 15 -18 13 -17 -3 -18 -2 -7 12 14 17
8 46 -9 46 -5 0 -10 -7 -10 -15 0 -17 -16 -20 -25 -5 -3 6 -1 10 6 10 10 0 10
3 2 11 -6 6 -9 17 -7 24 7 17 -36 47 -50 36 -12 -10 -50 12 -39 22 3 4 0 13
-7 22 -10 12 -16 13 -27 4 -11 -10 -12 -9 -7 5 5 13 -1 16 -29 16 -20 0 -43 3
-52 7 -14 5 -16 2 -10 -15z m226 -270 c8 -40 -1 -41 -24 -3 -21 36 -21 43 0
39 10 -2 20 -16 24 -36z m114 18 c0 -7 -6 -15 -12 -17 -8 -3 -13 4 -13 17 0
13 5 20 13 18 6 -3 12 -11 12 -18z m-2725 -945 c0 -5 -5 -3 -10 5 -5 8 -10 20
-10 25 0 6 5 3 10 -5 5 -8 10 -19 10 -25z m2200 -675 c0 -5 -2 -10 -4 -10 -3
0 -8 5 -11 10 -3 6 -1 10 4 10 6 0 11 -4 11 -10z m251 -43 c-10 -9 -11 -8 -5
6 3 10 9 15 12 12 3 -3 0 -11 -7 -18z m-31 -1122 c0 -8 -7 -15 -15 -15 -9 0
-12 6 -9 15 4 8 10 15 15 15 5 0 9 -7 9 -15z"/>
<path d="M4068 4163 c7 -3 16 -2 19 1 4 3 -2 6 -13 5 -11 0 -14 -3 -6 -6z"/>
<path d="M1724 4088 c-10 -16 2 -20 40 -12 21 3 35 9 32 12 -10 9 -66 10 -72
0z"/>
<path d="M1700 4060 c0 -11 4 -20 9 -20 5 0 7 9 4 20 -3 11 -7 20 -9 20 -2 0
-4 -9 -4 -20z"/>
<path d="M1800 4038 c0 -17 -5 -28 -14 -28 -9 0 -12 -7 -9 -20 3 -11 14 -20
24 -20 15 0 18 5 14 23 -5 18 0 25 27 36 19 7 28 15 20 18 -7 3 -19 0 -27 -7
-10 -9 -16 -7 -24 7 -9 16 -10 15 -11 -9z"/>
<path d="M1710 4001 c0 -10 19 -25 25 -20 1 2 -3 10 -11 17 -8 7 -14 8 -14 3z"/>
<path d="M1860 3886 c6 -8 19 -12 28 -10 15 5 14 4 -1 -9 -20 -16 -9 -31 12
-17 19 11 5 44 -14 36 -8 -3 -15 -1 -15 4 0 6 -5 10 -11 10 -8 0 -8 -4 1 -14z"/>
<path d="M1790 3884 c0 -3 8 -13 17 -22 16 -16 16 -16 11 0 -4 9 -2 19 5 22 7
2 2 5 -10 5 -13 1 -23 -2 -23 -5z"/>
<path d="M1925 3718 c-4 -10 -13 -18 -20 -18 -15 0 -29 -29 -15 -31 6 -1 16
-2 23 -3 23 -3 38 21 28 46 -8 20 -10 21 -16 6z"/>
<path d="M1480 3470 c0 -5 4 -10 9 -10 6 0 13 5 16 10 3 6 -1 10 -9 10 -9 0
-16 -4 -16 -10z"/>
<path d="M1457 3353 c-4 -3 -7 -11 -7 -17 0 -6 5 -5 12 2 6 6 9 14 7 17 -3 3
-9 2 -12 -2z"/>
<path d="M3765 2529 c-4 -6 -4 -13 -1 -16 3 -3 1 -14 -4 -23 -8 -15 -6 -18 15
-16 14 0 26 9 29 19 3 12 -1 17 -12 15 -11 -2 -16 3 -16 15 2 19 -2 22 -11 6z"/>
<path d="M3820 2490 c0 -5 5 -10 11 -10 5 0 7 5 4 10 -3 6 -8 10 -11 10 -2 0
-4 -4 -4 -10z"/>
<path d="M3883 2462 c-8 -5 -9 -13 -3 -22 11 -17 23 -8 18 14 -2 9 -8 12 -15
8z"/>
<path d="M3938 2098 c-10 -7 -14 -18 -10 -25 10 -17 35 0 30 21 -2 14 -6 15
-20 4z"/>
<path d="M3844 2005 c-10 -8 -14 -14 -9 -15 15 0 40 18 34 24 -3 3 -14 -1 -25
-9z"/>
<path d="M3891 2007 c-1 -21 21 -18 27 4 3 12 2 12 -6 0 -8 -11 -10 -11 -15 0
-4 10 -6 8 -6 -4z"/>
</g>
</svg>
